<mxfile host="app.diagrams.net" modified="2023-12-16T13:37:11.244Z" agent="Mozilla/5.0 (X11; Linux x86_64) AppleWebKit/537.36 (KHTML, like Gecko) Chrome/115.0.0.0 Safari/537.36" etag="23e6Da0kxxI8hHO59GwL" version="22.1.11" type="device">
  <diagram name="Page-1" id="_wcG8xe-D7dsYR9DWQV5">
    <mxGraphModel dx="819" dy="427" grid="1" gridSize="10" guides="1" tooltips="1" connect="1" arrows="1" fold="1" page="1" pageScale="1" pageWidth="850" pageHeight="1100" math="0" shadow="0">
      <root>
        <mxCell id="0" />
        <mxCell id="1" parent="0" />
        <mxCell id="gB0xZqEEHk474Gqq3liz-2" value="main-game: enter password to join lobby" style="swimlane;whiteSpace=wrap;html=1;" vertex="1" parent="1">
          <mxGeometry x="480" y="120" width="630" height="350" as="geometry">
            <mxRectangle x="110" y="30" width="180" height="30" as="alternateBounds" />
          </mxGeometry>
        </mxCell>
        <mxCell id="gB0xZqEEHk474Gqq3liz-4" value="************" style="rounded=0;whiteSpace=wrap;html=1;align=left;" vertex="1" parent="gB0xZqEEHk474Gqq3liz-2">
          <mxGeometry x="200" y="178" width="230" height="20" as="geometry" />
        </mxCell>
        <mxCell id="gB0xZqEEHk474Gqq3liz-5" value="cancel/quit" style="rounded=0;whiteSpace=wrap;html=1;fontSize=9;" vertex="1" parent="gB0xZqEEHk474Gqq3liz-2">
          <mxGeometry x="240" y="240" width="70" height="20" as="geometry" />
        </mxCell>
        <mxCell id="gB0xZqEEHk474Gqq3liz-6" value="join" style="rounded=0;whiteSpace=wrap;html=1;fillColor=#d5e8d4;strokeColor=#82b366;" vertex="1" parent="gB0xZqEEHk474Gqq3liz-2">
          <mxGeometry x="330" y="240" width="70" height="20" as="geometry" />
        </mxCell>
        <mxCell id="gB0xZqEEHk474Gqq3liz-9" value="Password:" style="text;html=1;align=center;verticalAlign=middle;resizable=0;points=[];autosize=1;strokeColor=none;fillColor=none;fontSize=27;" vertex="1" parent="gB0xZqEEHk474Gqq3liz-2">
          <mxGeometry x="240" y="80" width="150" height="50" as="geometry" />
        </mxCell>
        <mxCell id="gB0xZqEEHk474Gqq3liz-10" value="" style="html=1;verticalLabelPosition=bottom;align=center;labelBackgroundColor=#ffffff;verticalAlign=top;strokeWidth=2;strokeColor=#0080F0;shadow=0;dashed=0;shape=mxgraph.ios7.icons.eye;" vertex="1" parent="gB0xZqEEHk474Gqq3liz-2">
          <mxGeometry x="394" y="179.95" width="30" height="14.1" as="geometry" />
        </mxCell>
        <mxCell id="gB0xZqEEHk474Gqq3liz-12" value="password:" style="text;html=1;align=center;verticalAlign=middle;resizable=0;points=[];autosize=1;strokeColor=none;fillColor=none;fontSize=10;" vertex="1" parent="gB0xZqEEHk474Gqq3liz-2">
          <mxGeometry x="190" y="152" width="70" height="30" as="geometry" />
        </mxCell>
        <mxCell id="gB0xZqEEHk474Gqq3liz-14" value="error: password is easy" style="text;html=1;align=center;verticalAlign=middle;resizable=0;points=[];autosize=1;strokeColor=none;fillColor=none;fontSize=10;fontColor=#FF0F0F;" vertex="1" parent="gB0xZqEEHk474Gqq3liz-2">
          <mxGeometry x="310" y="152" width="130" height="30" as="geometry" />
        </mxCell>
        <mxCell id="gB0xZqEEHk474Gqq3liz-16" value="main-client: Register Form" style="swimlane;whiteSpace=wrap;html=1;" vertex="1" parent="1">
          <mxGeometry x="480" y="500" width="630" height="350" as="geometry">
            <mxRectangle x="110" y="30" width="180" height="30" as="alternateBounds" />
          </mxGeometry>
        </mxCell>
        <mxCell id="gB0xZqEEHk474Gqq3liz-17" value="account@gmail.com" style="rounded=0;whiteSpace=wrap;html=1;align=left;" vertex="1" parent="gB0xZqEEHk474Gqq3liz-16">
          <mxGeometry x="193" y="138" width="230" height="20" as="geometry" />
        </mxCell>
        <mxCell id="gB0xZqEEHk474Gqq3liz-18" value="&lt;font style=&quot;font-size: 10px;&quot;&gt;have account&lt;/font&gt;" style="rounded=0;whiteSpace=wrap;html=1;" vertex="1" parent="gB0xZqEEHk474Gqq3liz-16">
          <mxGeometry x="213" y="280" width="70" height="20" as="geometry" />
        </mxCell>
        <mxCell id="gB0xZqEEHk474Gqq3liz-19" value="submit" style="rounded=0;whiteSpace=wrap;html=1;fillColor=#d5e8d4;strokeColor=#82b366;" vertex="1" parent="gB0xZqEEHk474Gqq3liz-16">
          <mxGeometry x="333" y="280" width="70" height="20" as="geometry" />
        </mxCell>
        <mxCell id="gB0xZqEEHk474Gqq3liz-20" value="Register" style="text;html=1;align=center;verticalAlign=middle;resizable=0;points=[];autosize=1;strokeColor=none;fillColor=none;fontSize=27;" vertex="1" parent="gB0xZqEEHk474Gqq3liz-16">
          <mxGeometry x="248" y="59" width="120" height="50" as="geometry" />
        </mxCell>
        <mxCell id="gB0xZqEEHk474Gqq3liz-21" value="email:" style="text;html=1;align=center;verticalAlign=middle;resizable=0;points=[];autosize=1;strokeColor=none;fillColor=none;fontSize=10;" vertex="1" parent="gB0xZqEEHk474Gqq3liz-16">
          <mxGeometry x="193" y="109" width="50" height="30" as="geometry" />
        </mxCell>
        <mxCell id="gB0xZqEEHk474Gqq3liz-22" value="error: email exists" style="text;html=1;align=center;verticalAlign=middle;resizable=0;points=[];autosize=1;strokeColor=none;fillColor=none;fontSize=10;fontColor=#FF0F0F;" vertex="1" parent="gB0xZqEEHk474Gqq3liz-16">
          <mxGeometry x="328" y="109" width="100" height="30" as="geometry" />
        </mxCell>
        <mxCell id="gB0xZqEEHk474Gqq3liz-23" value="************" style="rounded=0;whiteSpace=wrap;html=1;align=left;" vertex="1" parent="gB0xZqEEHk474Gqq3liz-16">
          <mxGeometry x="193" y="232" width="230" height="20" as="geometry" />
        </mxCell>
        <mxCell id="gB0xZqEEHk474Gqq3liz-24" value="" style="html=1;verticalLabelPosition=bottom;align=center;labelBackgroundColor=#ffffff;verticalAlign=top;strokeWidth=2;strokeColor=#0080F0;shadow=0;dashed=0;shape=mxgraph.ios7.icons.eye;" vertex="1" parent="gB0xZqEEHk474Gqq3liz-16">
          <mxGeometry x="387" y="233.95000000000005" width="30" height="14.1" as="geometry" />
        </mxCell>
        <mxCell id="gB0xZqEEHk474Gqq3liz-25" value="password:" style="text;html=1;align=center;verticalAlign=middle;resizable=0;points=[];autosize=1;strokeColor=none;fillColor=none;fontSize=10;" vertex="1" parent="gB0xZqEEHk474Gqq3liz-16">
          <mxGeometry x="183" y="206" width="70" height="30" as="geometry" />
        </mxCell>
        <mxCell id="gB0xZqEEHk474Gqq3liz-26" value="error: password is easy" style="text;html=1;align=center;verticalAlign=middle;resizable=0;points=[];autosize=1;strokeColor=none;fillColor=none;fontSize=10;fontColor=#FF0F0F;" vertex="1" parent="gB0xZqEEHk474Gqq3liz-16">
          <mxGeometry x="303" y="206" width="130" height="30" as="geometry" />
        </mxCell>
        <mxCell id="gB0xZqEEHk474Gqq3liz-27" value="testUsernameAccount22" style="rounded=0;whiteSpace=wrap;html=1;align=left;" vertex="1" parent="gB0xZqEEHk474Gqq3liz-16">
          <mxGeometry x="193" y="186" width="230" height="20" as="geometry" />
        </mxCell>
        <mxCell id="gB0xZqEEHk474Gqq3liz-28" value="username:" style="text;html=1;align=center;verticalAlign=middle;resizable=0;points=[];autosize=1;strokeColor=none;fillColor=none;fontSize=10;" vertex="1" parent="gB0xZqEEHk474Gqq3liz-16">
          <mxGeometry x="183" y="160" width="70" height="30" as="geometry" />
        </mxCell>
        <mxCell id="gB0xZqEEHk474Gqq3liz-29" value="error username is exists" style="text;html=1;align=center;verticalAlign=middle;resizable=0;points=[];autosize=1;strokeColor=none;fillColor=none;fontSize=10;fontColor=#FF0F0F;" vertex="1" parent="gB0xZqEEHk474Gqq3liz-16">
          <mxGeometry x="303" y="160" width="130" height="30" as="geometry" />
        </mxCell>
        <mxCell id="gB0xZqEEHk474Gqq3liz-32" value="failed/longwait" style="edgeStyle=orthogonalEdgeStyle;rounded=0;orthogonalLoop=1;jettySize=auto;html=1;fillColor=#dae8fc;strokeColor=#6c8ebf;" edge="1" parent="1" source="gB0xZqEEHk474Gqq3liz-34" target="gB0xZqEEHk474Gqq3liz-40">
          <mxGeometry relative="1" as="geometry" />
        </mxCell>
        <mxCell id="gB0xZqEEHk474Gqq3liz-34" value="main-client: Login/Register wait.." style="swimlane;whiteSpace=wrap;html=1;" vertex="1" parent="1">
          <mxGeometry x="1319" y="230" width="630" height="350" as="geometry">
            <mxRectangle x="110" y="30" width="180" height="30" as="alternateBounds" />
          </mxGeometry>
        </mxCell>
        <mxCell id="gB0xZqEEHk474Gqq3liz-35" value="Login to %username%&lt;br&gt;Please wait..." style="text;html=1;align=center;verticalAlign=middle;resizable=0;points=[];autosize=1;strokeColor=none;fillColor=none;fontSize=27;" vertex="1" parent="gB0xZqEEHk474Gqq3liz-34">
          <mxGeometry x="165" y="90" width="300" height="80" as="geometry" />
        </mxCell>
        <mxCell id="gB0xZqEEHk474Gqq3liz-36" value="Creating account&lt;br&gt;Please wait..." style="text;html=1;align=center;verticalAlign=middle;resizable=0;points=[];autosize=1;strokeColor=none;fillColor=none;fontSize=27;" vertex="1" parent="gB0xZqEEHk474Gqq3liz-34">
          <mxGeometry x="200" y="210" width="230" height="80" as="geometry" />
        </mxCell>
        <mxCell id="gB0xZqEEHk474Gqq3liz-37" value="OR" style="text;html=1;align=center;verticalAlign=middle;resizable=0;points=[];autosize=1;strokeColor=none;fillColor=none;fontSize=27;" vertex="1" parent="gB0xZqEEHk474Gqq3liz-34">
          <mxGeometry x="280" y="170" width="60" height="50" as="geometry" />
        </mxCell>
        <mxCell id="gB0xZqEEHk474Gqq3liz-40" value="main-client: Login/register dialog failed" style="swimlane;whiteSpace=wrap;html=1;" vertex="1" parent="1">
          <mxGeometry x="2220" y="350" width="630" height="350" as="geometry">
            <mxRectangle x="110" y="30" width="180" height="30" as="alternateBounds" />
          </mxGeometry>
        </mxCell>
        <mxCell id="gB0xZqEEHk474Gqq3liz-41" value="1.Connection problem&lt;br&gt;2.Server did not response for a while" style="text;html=1;align=center;verticalAlign=middle;resizable=0;points=[];autosize=1;strokeColor=none;fillColor=none;fontSize=27;" vertex="1" parent="gB0xZqEEHk474Gqq3liz-40">
          <mxGeometry x="85" y="100" width="460" height="80" as="geometry" />
        </mxCell>
        <mxCell id="gB0xZqEEHk474Gqq3liz-42" value="retry" style="rounded=0;whiteSpace=wrap;html=1;" vertex="1" parent="gB0xZqEEHk474Gqq3liz-40">
          <mxGeometry x="348" y="220" width="115" height="30" as="geometry" />
        </mxCell>
        <mxCell id="gB0xZqEEHk474Gqq3liz-43" value="quit" style="rounded=0;whiteSpace=wrap;html=1;fillColor=#f8cecc;strokeColor=#b85450;" vertex="1" parent="gB0xZqEEHk474Gqq3liz-40">
          <mxGeometry x="168" y="220" width="115" height="30" as="geometry" />
        </mxCell>
        <mxCell id="gB0xZqEEHk474Gqq3liz-44" value="retry" style="edgeStyle=orthogonalEdgeStyle;rounded=0;orthogonalLoop=1;jettySize=auto;html=1;fillColor=#e1d5e7;strokeColor=#9673a6;" edge="1" parent="1" source="gB0xZqEEHk474Gqq3liz-42">
          <mxGeometry relative="1" as="geometry">
            <mxPoint x="1949" y="340" as="targetPoint" />
            <Array as="points">
              <mxPoint x="2890" y="585" />
              <mxPoint x="2890" y="330" />
              <mxPoint x="1949" y="330" />
            </Array>
          </mxGeometry>
        </mxCell>
        <mxCell id="gB0xZqEEHk474Gqq3liz-45" value="main-client: main page" style="swimlane;whiteSpace=wrap;html=1;" vertex="1" parent="1">
          <mxGeometry x="1319" y="650" width="641" height="450" as="geometry">
            <mxRectangle x="110" y="30" width="180" height="30" as="alternateBounds" />
          </mxGeometry>
        </mxCell>
        <mxCell id="gB0xZqEEHk474Gqq3liz-46" value="" style="html=1;shape=mxgraph.basic.isocube;isoAngle=15;fillColor=#b1ddf0;strokeColor=#10739e;" vertex="1" parent="gB0xZqEEHk474Gqq3liz-45">
          <mxGeometry x="228" y="185" width="100" height="100" as="geometry" />
        </mxCell>
        <mxCell id="gB0xZqEEHk474Gqq3liz-47" value="" style="html=1;verticalLabelPosition=bottom;align=center;labelBackgroundColor=#ffffff;verticalAlign=top;strokeWidth=2;strokeColor=#F70B0B;shadow=0;dashed=0;shape=mxgraph.ios7.icons.locked;fillColor=none;opacity=50;" vertex="1" parent="gB0xZqEEHk474Gqq3liz-45">
          <mxGeometry x="267.47999999999996" y="191.63" width="21.4" height="26.75" as="geometry" />
        </mxCell>
        <mxCell id="gB0xZqEEHk474Gqq3liz-48" value="create lobby" style="rounded=0;whiteSpace=wrap;html=1;" vertex="1" parent="gB0xZqEEHk474Gqq3liz-45">
          <mxGeometry x="504.33000000000004" y="35" width="110" height="25" as="geometry" />
        </mxCell>
        <mxCell id="gB0xZqEEHk474Gqq3liz-49" value="join" style="rounded=0;whiteSpace=wrap;html=1;fillColor=#d5e8d4;strokeColor=#82b366;" vertex="1" parent="gB0xZqEEHk474Gqq3liz-45">
          <mxGeometry x="191" y="35" width="39" height="20" as="geometry" />
        </mxCell>
        <mxCell id="gB0xZqEEHk474Gqq3liz-50" value="10326" style="rounded=0;whiteSpace=wrap;html=1;align=left;" vertex="1" parent="gB0xZqEEHk474Gqq3liz-45">
          <mxGeometry x="71" y="35" width="110" height="20" as="geometry" />
        </mxCell>
        <mxCell id="gB0xZqEEHk474Gqq3liz-51" value="lobby id" style="text;html=1;align=center;verticalAlign=middle;resizable=0;points=[];autosize=1;strokeColor=none;fillColor=none;fontSize=10;" vertex="1" parent="gB0xZqEEHk474Gqq3liz-45">
          <mxGeometry x="16" y="30" width="60" height="30" as="geometry" />
        </mxCell>
        <mxCell id="gB0xZqEEHk474Gqq3liz-52" value="not found" style="text;html=1;align=center;verticalAlign=middle;resizable=0;points=[];autosize=1;strokeColor=none;fillColor=none;fontSize=10;fontColor=#FF0F0F;" vertex="1" parent="gB0xZqEEHk474Gqq3liz-45">
          <mxGeometry x="121" y="30" width="70" height="30" as="geometry" />
        </mxCell>
        <mxCell id="gB0xZqEEHk474Gqq3liz-53" value="" style="rhombus;whiteSpace=wrap;html=1;" vertex="1" parent="gB0xZqEEHk474Gqq3liz-45">
          <mxGeometry x="1" y="163" width="80" height="80" as="geometry" />
        </mxCell>
        <mxCell id="gB0xZqEEHk474Gqq3liz-54" value="" style="rhombus;whiteSpace=wrap;html=1;fillColor=#f8cecc;strokeColor=#b85450;" vertex="1" parent="gB0xZqEEHk474Gqq3liz-45">
          <mxGeometry x="81" y="163" width="80" height="80" as="geometry" />
        </mxCell>
        <mxCell id="gB0xZqEEHk474Gqq3liz-55" value="" style="rhombus;whiteSpace=wrap;html=1;fillColor=#f8cecc;strokeColor=#b85450;gradientColor=#ea6b66;" vertex="1" parent="gB0xZqEEHk474Gqq3liz-45">
          <mxGeometry x="41" y="123" width="80" height="80" as="geometry" />
        </mxCell>
        <mxCell id="gB0xZqEEHk474Gqq3liz-56" value="" style="rhombus;whiteSpace=wrap;html=1;fillColor=#d5e8d4;strokeColor=#82b366;" vertex="1" parent="gB0xZqEEHk474Gqq3liz-45">
          <mxGeometry x="41" y="203" width="80" height="80" as="geometry" />
        </mxCell>
        <mxCell id="gB0xZqEEHk474Gqq3liz-57" value="" style="html=1;shape=mxgraph.basic.isocube;isoAngle=15;fillColor=#e1d5e7;strokeColor=#9673a6;" vertex="1" parent="gB0xZqEEHk474Gqq3liz-45">
          <mxGeometry x="326" y="181" width="100" height="100" as="geometry" />
        </mxCell>
        <mxCell id="gB0xZqEEHk474Gqq3liz-58" value="" style="html=1;shape=mxgraph.basic.isocube;isoAngle=15;fillColor=#fff2cc;strokeColor=#d6b656;" vertex="1" parent="gB0xZqEEHk474Gqq3liz-45">
          <mxGeometry x="330" y="81" width="100" height="100" as="geometry" />
        </mxCell>
        <mxCell id="gB0xZqEEHk474Gqq3liz-59" value="" style="rhombus;whiteSpace=wrap;html=1;" vertex="1" parent="gB0xZqEEHk474Gqq3liz-45">
          <mxGeometry x="41" y="283" width="80" height="80" as="geometry" />
        </mxCell>
        <mxCell id="gB0xZqEEHk474Gqq3liz-60" value="" style="rhombus;whiteSpace=wrap;html=1;" vertex="1" parent="gB0xZqEEHk474Gqq3liz-45">
          <mxGeometry x="121" y="205" width="80" height="80" as="geometry" />
        </mxCell>
        <mxCell id="gB0xZqEEHk474Gqq3liz-61" value="" style="rhombus;whiteSpace=wrap;html=1;fillColor=#e1d5e7;strokeColor=#9673a6;" vertex="1" parent="gB0xZqEEHk474Gqq3liz-45">
          <mxGeometry x="121" y="125" width="80" height="80" as="geometry" />
        </mxCell>
        <mxCell id="gB0xZqEEHk474Gqq3liz-62" value="" style="html=1;shape=mxgraph.basic.isocube;isoAngle=15;fillColor=#f8cecc;strokeColor=#b85450;gradientColor=#ea6b66;" vertex="1" parent="gB0xZqEEHk474Gqq3liz-45">
          <mxGeometry x="328" y="285" width="100" height="100" as="geometry" />
        </mxCell>
        <mxCell id="gB0xZqEEHk474Gqq3liz-63" value="" style="html=1;shape=mxgraph.basic.isocube;isoAngle=15;fillColor=#b0e3e6;strokeColor=#0e8088;" vertex="1" parent="gB0xZqEEHk474Gqq3liz-45">
          <mxGeometry x="228" y="81" width="100" height="100" as="geometry" />
        </mxCell>
        <mxCell id="gB0xZqEEHk474Gqq3liz-64" value="" style="rhombus;whiteSpace=wrap;html=1;fillColor=#e1d5e7;strokeColor=#9673a6;" vertex="1" parent="gB0xZqEEHk474Gqq3liz-45">
          <mxGeometry x="1" y="243" width="80" height="80" as="geometry" />
        </mxCell>
        <mxCell id="gB0xZqEEHk474Gqq3liz-65" value="" style="rhombus;whiteSpace=wrap;html=1;fillColor=#dae8fc;strokeColor=#6c8ebf;" vertex="1" parent="gB0xZqEEHk474Gqq3liz-45">
          <mxGeometry x="1" y="83" width="80" height="80" as="geometry" />
        </mxCell>
        <mxCell id="gB0xZqEEHk474Gqq3liz-66" value="" style="rhombus;whiteSpace=wrap;html=1;" vertex="1" parent="gB0xZqEEHk474Gqq3liz-45">
          <mxGeometry x="81" y="83" width="80" height="80" as="geometry" />
        </mxCell>
        <mxCell id="gB0xZqEEHk474Gqq3liz-67" value="" style="rhombus;whiteSpace=wrap;html=1;" vertex="1" parent="gB0xZqEEHk474Gqq3liz-45">
          <mxGeometry x="81" y="245" width="80" height="80" as="geometry" />
        </mxCell>
        <mxCell id="gB0xZqEEHk474Gqq3liz-68" value="" style="rhombus;whiteSpace=wrap;html=1;" vertex="1" parent="gB0xZqEEHk474Gqq3liz-45">
          <mxGeometry x="1" y="323" width="80" height="80" as="geometry" />
        </mxCell>
        <mxCell id="gB0xZqEEHk474Gqq3liz-69" value="" style="rhombus;whiteSpace=wrap;html=1;fillColor=#6d8764;fontColor=#ffffff;strokeColor=#3A5431;" vertex="1" parent="gB0xZqEEHk474Gqq3liz-45">
          <mxGeometry x="41" y="363" width="80" height="80" as="geometry" />
        </mxCell>
        <mxCell id="gB0xZqEEHk474Gqq3liz-70" value="" style="rhombus;whiteSpace=wrap;html=1;fillColor=#fa6800;fontColor=#000000;strokeColor=#C73500;" vertex="1" parent="gB0xZqEEHk474Gqq3liz-45">
          <mxGeometry x="81" y="325" width="80" height="80" as="geometry" />
        </mxCell>
        <mxCell id="gB0xZqEEHk474Gqq3liz-71" value="" style="rhombus;whiteSpace=wrap;html=1;" vertex="1" parent="gB0xZqEEHk474Gqq3liz-45">
          <mxGeometry x="121" y="285" width="80" height="80" as="geometry" />
        </mxCell>
        <mxCell id="gB0xZqEEHk474Gqq3liz-72" value="" style="rhombus;whiteSpace=wrap;html=1;fillColor=#1ba1e2;fontColor=#ffffff;strokeColor=#006EAF;" vertex="1" parent="gB0xZqEEHk474Gqq3liz-45">
          <mxGeometry x="121" y="365" width="80" height="80" as="geometry" />
        </mxCell>
        <mxCell id="gB0xZqEEHk474Gqq3liz-73" value="" style="rhombus;whiteSpace=wrap;html=1;" vertex="1" parent="gB0xZqEEHk474Gqq3liz-45">
          <mxGeometry x="161" y="325" width="80" height="80" as="geometry" />
        </mxCell>
        <mxCell id="gB0xZqEEHk474Gqq3liz-74" value="" style="rhombus;whiteSpace=wrap;html=1;fillColor=#ffe6cc;strokeColor=#d79b00;" vertex="1" parent="gB0xZqEEHk474Gqq3liz-45">
          <mxGeometry x="161" y="245" width="80" height="80" as="geometry" />
        </mxCell>
        <mxCell id="gB0xZqEEHk474Gqq3liz-75" value="" style="html=1;shape=mxgraph.basic.isocube;isoAngle=15;fillColor=#fad9d5;strokeColor=#ae4132;" vertex="1" parent="gB0xZqEEHk474Gqq3liz-45">
          <mxGeometry x="226" y="285" width="100" height="100" as="geometry" />
        </mxCell>
        <mxCell id="gB0xZqEEHk474Gqq3liz-76" value="refresh&lt;br&gt;lobby list" style="html=1;verticalLabelPosition=bottom;align=center;labelBackgroundColor=#ffffff;verticalAlign=top;strokeWidth=2;strokeColor=#0080F0;shadow=0;dashed=0;shape=mxgraph.ios7.icons.reload;" vertex="1" parent="gB0xZqEEHk474Gqq3liz-45">
          <mxGeometry x="601" y="83" width="13.33" height="15" as="geometry" />
        </mxCell>
        <mxCell id="gB0xZqEEHk474Gqq3liz-77" value="logout" style="html=1;verticalLabelPosition=bottom;align=center;labelBackgroundColor=#ffffff;verticalAlign=top;strokeWidth=2;strokeColor=#82b366;shadow=0;dashed=0;shape=mxgraph.ios7.icons.locked;fillColor=#d5e8d4;" vertex="1" parent="gB0xZqEEHk474Gqq3liz-45">
          <mxGeometry x="451" y="32.5" width="20" height="25" as="geometry" />
        </mxCell>
        <mxCell id="gB0xZqEEHk474Gqq3liz-78" value="" style="shape=actor;whiteSpace=wrap;html=1;" vertex="1" parent="gB0xZqEEHk474Gqq3liz-45">
          <mxGeometry x="77.67" y="207" width="6.67" height="10" as="geometry" />
        </mxCell>
        <mxCell id="gB0xZqEEHk474Gqq3liz-79" value="4/8" style="text;html=1;strokeColor=none;fillColor=none;align=center;verticalAlign=middle;whiteSpace=wrap;rounded=0;fontSize=6;" vertex="1" parent="gB0xZqEEHk474Gqq3liz-45">
          <mxGeometry x="73.16" y="217" width="15.67" height="10" as="geometry" />
        </mxCell>
        <mxCell id="gB0xZqEEHk474Gqq3liz-80" value="" style="html=1;verticalLabelPosition=bottom;align=center;labelBackgroundColor=#ffffff;verticalAlign=top;strokeWidth=2;shadow=0;dashed=0;shape=mxgraph.ios7.icons.microphone;" vertex="1" parent="gB0xZqEEHk474Gqq3liz-45">
          <mxGeometry x="48" y="238" width="4" height="10" as="geometry" />
        </mxCell>
        <mxCell id="gB0xZqEEHk474Gqq3liz-81" value="" style="html=1;verticalLabelPosition=bottom;align=center;labelBackgroundColor=#ffffff;verticalAlign=top;strokeWidth=2;shadow=0;dashed=0;shape=mxgraph.ios7.icons.chat;" vertex="1" parent="gB0xZqEEHk474Gqq3liz-45">
          <mxGeometry x="102.75" y="238" width="12.33" height="7" as="geometry" />
        </mxCell>
        <mxCell id="gB0xZqEEHk474Gqq3liz-82" value="" style="shape=image;html=1;verticalAlign=top;verticalLabelPosition=bottom;labelBackgroundColor=#ffffff;imageAspect=0;aspect=fixed;image=https://cdn0.iconfinder.com/data/icons/pokemon-go-vol-2/135/_pikachu-128.png" vertex="1" parent="gB0xZqEEHk474Gqq3liz-45">
          <mxGeometry x="62.76" y="226.75" width="36.5" height="36.5" as="geometry" />
        </mxCell>
        <mxCell id="gB0xZqEEHk474Gqq3liz-83" value="" style="shape=image;html=1;verticalAlign=top;verticalLabelPosition=bottom;labelBackgroundColor=#ffffff;imageAspect=0;aspect=fixed;image=https://cdn4.iconfinder.com/data/icons/evil-icons-user-interface/64/eye-128.png;imageBackground=none;imageBorder=none;" vertex="1" parent="gB0xZqEEHk474Gqq3liz-45">
          <mxGeometry x="56" y="221" width="15" height="15" as="geometry" />
        </mxCell>
        <mxCell id="gB0xZqEEHk474Gqq3liz-84" value="in-game" style="text;html=1;strokeColor=none;fillColor=none;align=center;verticalAlign=middle;whiteSpace=wrap;rounded=0;fontSize=4;" vertex="1" parent="gB0xZqEEHk474Gqq3liz-45">
          <mxGeometry x="69.69" y="270" width="22.63" height="1" as="geometry" />
        </mxCell>
        <mxCell id="gB0xZqEEHk474Gqq3liz-85" value="" style="shape=actor;whiteSpace=wrap;html=1;" vertex="1" parent="gB0xZqEEHk474Gqq3liz-45">
          <mxGeometry x="157.1300000000001" y="128" width="6.67" height="10" as="geometry" />
        </mxCell>
        <mxCell id="gB0xZqEEHk474Gqq3liz-86" value="2/3" style="text;html=1;strokeColor=none;fillColor=none;align=center;verticalAlign=middle;whiteSpace=wrap;rounded=0;fontSize=6;" vertex="1" parent="gB0xZqEEHk474Gqq3liz-45">
          <mxGeometry x="152.6199999999999" y="138" width="15.67" height="10" as="geometry" />
        </mxCell>
        <mxCell id="gB0xZqEEHk474Gqq3liz-87" value="" style="html=1;verticalLabelPosition=bottom;align=center;labelBackgroundColor=#ffffff;verticalAlign=top;strokeWidth=2;shadow=0;dashed=0;shape=mxgraph.ios7.icons.microphone;fillColor=#f8cecc;strokeColor=#b85450;" vertex="1" parent="gB0xZqEEHk474Gqq3liz-45">
          <mxGeometry x="127.46000000000004" y="159" width="4" height="10" as="geometry" />
        </mxCell>
        <mxCell id="gB0xZqEEHk474Gqq3liz-88" value="" style="html=1;verticalLabelPosition=bottom;align=center;labelBackgroundColor=#ffffff;verticalAlign=top;strokeWidth=2;shadow=0;dashed=0;shape=mxgraph.ios7.icons.chat;" vertex="1" parent="gB0xZqEEHk474Gqq3liz-45">
          <mxGeometry x="182.21000000000004" y="159" width="12.33" height="7" as="geometry" />
        </mxCell>
        <mxCell id="gB0xZqEEHk474Gqq3liz-89" value="" style="shape=image;html=1;verticalAlign=top;verticalLabelPosition=bottom;labelBackgroundColor=#ffffff;imageAspect=0;aspect=fixed;image=https://cdn4.iconfinder.com/data/icons/evil-icons-user-interface/64/eye-128.png;imageBackground=none;imageBorder=none;" vertex="1" parent="gB0xZqEEHk474Gqq3liz-45">
          <mxGeometry x="135.46000000000004" y="142" width="15" height="15" as="geometry" />
        </mxCell>
        <mxCell id="gB0xZqEEHk474Gqq3liz-90" value="in-lobby" style="text;html=1;strokeColor=none;fillColor=none;align=center;verticalAlign=middle;whiteSpace=wrap;rounded=0;fontSize=4;" vertex="1" parent="gB0xZqEEHk474Gqq3liz-45">
          <mxGeometry x="149.1500000000001" y="191" width="22.63" height="1" as="geometry" />
        </mxCell>
        <mxCell id="gB0xZqEEHk474Gqq3liz-91" value="" style="shape=actor;whiteSpace=wrap;html=1;" vertex="1" parent="gB0xZqEEHk474Gqq3liz-45">
          <mxGeometry x="197.1300000000001" y="248" width="6.67" height="10" as="geometry" />
        </mxCell>
        <mxCell id="gB0xZqEEHk474Gqq3liz-92" value="10/10" style="text;html=1;strokeColor=none;fillColor=none;align=center;verticalAlign=middle;whiteSpace=wrap;rounded=0;fontSize=6;fontColor=#FF1B0A;" vertex="1" parent="gB0xZqEEHk474Gqq3liz-45">
          <mxGeometry x="192.6199999999999" y="258" width="15.67" height="10" as="geometry" />
        </mxCell>
        <mxCell id="gB0xZqEEHk474Gqq3liz-93" value="" style="html=1;verticalLabelPosition=bottom;align=center;labelBackgroundColor=#ffffff;verticalAlign=top;strokeWidth=2;shadow=0;dashed=0;shape=mxgraph.ios7.icons.microphone;fillColor=#f8cecc;strokeColor=#b85450;" vertex="1" parent="gB0xZqEEHk474Gqq3liz-45">
          <mxGeometry x="167.46000000000004" y="279" width="4" height="10" as="geometry" />
        </mxCell>
        <mxCell id="gB0xZqEEHk474Gqq3liz-94" value="" style="html=1;verticalLabelPosition=bottom;align=center;labelBackgroundColor=#ffffff;verticalAlign=top;strokeWidth=2;shadow=0;dashed=0;shape=mxgraph.ios7.icons.chat;fillColor=#f8cecc;strokeColor=#b85450;" vertex="1" parent="gB0xZqEEHk474Gqq3liz-45">
          <mxGeometry x="222.21000000000004" y="279" width="12.33" height="7" as="geometry" />
        </mxCell>
        <mxCell id="gB0xZqEEHk474Gqq3liz-95" value="" style="shape=image;html=1;verticalAlign=top;verticalLabelPosition=bottom;labelBackgroundColor=#ffffff;imageAspect=0;aspect=fixed;image=https://cdn4.iconfinder.com/data/icons/evil-icons-user-interface/64/eye-128.png;imageBackground=none;imageBorder=none;" vertex="1" parent="gB0xZqEEHk474Gqq3liz-45">
          <mxGeometry x="175.46000000000004" y="262" width="15" height="15" as="geometry" />
        </mxCell>
        <mxCell id="gB0xZqEEHk474Gqq3liz-96" value="in-game" style="text;html=1;strokeColor=none;fillColor=none;align=center;verticalAlign=middle;whiteSpace=wrap;rounded=0;fontSize=4;" vertex="1" parent="gB0xZqEEHk474Gqq3liz-45">
          <mxGeometry x="189.1500000000001" y="311" width="22.63" height="1" as="geometry" />
        </mxCell>
        <mxCell id="gB0xZqEEHk474Gqq3liz-97" value="" style="shape=image;html=1;verticalAlign=top;verticalLabelPosition=bottom;labelBackgroundColor=#ffffff;imageAspect=0;aspect=fixed;image=https://cdn0.iconfinder.com/data/icons/pokemon-go-vol-2/135/_snorlax-128.png" vertex="1" parent="gB0xZqEEHk474Gqq3liz-45">
          <mxGeometry x="185" y="271" width="32" height="32" as="geometry" />
        </mxCell>
        <mxCell id="gB0xZqEEHk474Gqq3liz-98" value="" style="shape=actor;whiteSpace=wrap;html=1;" vertex="1" parent="gB0xZqEEHk474Gqq3liz-45">
          <mxGeometry x="77.67000000000007" y="287" width="6.67" height="10" as="geometry" />
        </mxCell>
        <mxCell id="gB0xZqEEHk474Gqq3liz-99" value="" style="html=1;verticalLabelPosition=bottom;align=center;labelBackgroundColor=#ffffff;verticalAlign=top;strokeWidth=2;shadow=0;dashed=0;shape=mxgraph.ios7.icons.microphone;" vertex="1" parent="gB0xZqEEHk474Gqq3liz-45">
          <mxGeometry x="48" y="318" width="4" height="10" as="geometry" />
        </mxCell>
        <mxCell id="gB0xZqEEHk474Gqq3liz-100" value="" style="html=1;verticalLabelPosition=bottom;align=center;labelBackgroundColor=#ffffff;verticalAlign=top;strokeWidth=2;shadow=0;dashed=0;shape=mxgraph.ios7.icons.chat;fillColor=#f8cecc;strokeColor=#b85450;" vertex="1" parent="gB0xZqEEHk474Gqq3liz-45">
          <mxGeometry x="102.75" y="318" width="12.33" height="7" as="geometry" />
        </mxCell>
        <mxCell id="gB0xZqEEHk474Gqq3liz-101" value="" style="shape=image;html=1;verticalAlign=top;verticalLabelPosition=bottom;labelBackgroundColor=#ffffff;imageAspect=0;aspect=fixed;image=https://cdn4.iconfinder.com/data/icons/evil-icons-user-interface/64/eye-128.png;imageBackground=none;imageBorder=none;" vertex="1" parent="gB0xZqEEHk474Gqq3liz-45">
          <mxGeometry x="56" y="301" width="15" height="15" as="geometry" />
        </mxCell>
        <mxCell id="gB0xZqEEHk474Gqq3liz-102" value="in-lobby" style="text;html=1;strokeColor=none;fillColor=none;align=center;verticalAlign=middle;whiteSpace=wrap;rounded=0;fontSize=4;" vertex="1" parent="gB0xZqEEHk474Gqq3liz-45">
          <mxGeometry x="69.69000000000005" y="350" width="22.63" height="1" as="geometry" />
        </mxCell>
        <mxCell id="gB0xZqEEHk474Gqq3liz-103" value="" style="shape=image;html=1;verticalAlign=top;verticalLabelPosition=bottom;labelBackgroundColor=#ffffff;imageAspect=0;aspect=fixed;image=https://cdn0.iconfinder.com/data/icons/pokemon-go-vol-2/135/_snorlax-128.png" vertex="1" parent="gB0xZqEEHk474Gqq3liz-45">
          <mxGeometry x="65.53999999999996" y="310" width="32" height="32" as="geometry" />
        </mxCell>
        <mxCell id="gB0xZqEEHk474Gqq3liz-104" value="4/4" style="text;html=1;strokeColor=none;fillColor=none;align=center;verticalAlign=middle;whiteSpace=wrap;rounded=0;fontSize=6;" vertex="1" parent="gB0xZqEEHk474Gqq3liz-45">
          <mxGeometry x="73.1599999999998" y="297" width="15.67" height="10" as="geometry" />
        </mxCell>
        <mxCell id="gB0xZqEEHk474Gqq3liz-105" value="" style="html=1;verticalLabelPosition=bottom;align=center;labelBackgroundColor=#ffffff;verticalAlign=top;strokeWidth=2;strokeColor=#F70B0B;shadow=0;dashed=0;shape=mxgraph.ios7.icons.locked;fillColor=none;opacity=50;" vertex="1" parent="gB0xZqEEHk474Gqq3liz-45">
          <mxGeometry x="68.61" y="307.5" width="24.8" height="31" as="geometry" />
        </mxCell>
        <mxCell id="gB0xZqEEHk474Gqq3liz-106" value="" style="shape=image;html=1;verticalAlign=top;verticalLabelPosition=bottom;labelBackgroundColor=#ffffff;imageAspect=0;aspect=fixed;image=https://cdn0.iconfinder.com/data/icons/pokemon-go-vol-2/135/_Pokeball-128.png" vertex="1" parent="gB0xZqEEHk474Gqq3liz-45">
          <mxGeometry x="146.46" y="151" width="28" height="28" as="geometry" />
        </mxCell>
        <mxCell id="gB0xZqEEHk474Gqq3liz-107" value="" style="sketch=0;outlineConnect=0;fontColor=#232F3E;gradientColor=none;fillColor=#8C4FFF;strokeColor=none;dashed=0;verticalLabelPosition=bottom;verticalAlign=top;align=center;html=1;fontSize=12;fontStyle=0;aspect=fixed;pointerEvents=1;shape=mxgraph.aws4.vpn_gateway;" vertex="1" parent="gB0xZqEEHk474Gqq3liz-45">
          <mxGeometry x="144" y="385" width="34" height="34" as="geometry" />
        </mxCell>
        <mxCell id="gB0xZqEEHk474Gqq3liz-108" value="" style="sketch=0;outlineConnect=0;fontColor=#232F3E;gradientColor=none;fillColor=#8C4FFF;strokeColor=none;dashed=0;verticalLabelPosition=bottom;verticalAlign=top;align=center;html=1;fontSize=12;fontStyle=0;aspect=fixed;pointerEvents=1;shape=mxgraph.aws4.vpn_gateway;" vertex="1" parent="gB0xZqEEHk474Gqq3liz-45">
          <mxGeometry x="62.75999999999999" y="145" width="34" height="34" as="geometry" />
        </mxCell>
        <mxCell id="gB0xZqEEHk474Gqq3liz-109" value="" style="sketch=0;outlineConnect=0;fontColor=#232F3E;gradientColor=none;fillColor=#8C4FFF;strokeColor=none;dashed=0;verticalLabelPosition=bottom;verticalAlign=top;align=center;html=1;fontSize=12;fontStyle=0;aspect=fixed;pointerEvents=1;shape=mxgraph.aws4.vpn_gateway;" vertex="1" parent="gB0xZqEEHk474Gqq3liz-45">
          <mxGeometry x="386" y="226" width="34" height="34" as="geometry" />
        </mxCell>
        <mxCell id="gB0xZqEEHk474Gqq3liz-110" value="" style="shape=actor;whiteSpace=wrap;html=1;" vertex="1" parent="gB0xZqEEHk474Gqq3liz-45">
          <mxGeometry x="282.21000000000004" y="260" width="6.67" height="10" as="geometry" />
        </mxCell>
        <mxCell id="gB0xZqEEHk474Gqq3liz-111" value="4/8" style="text;html=1;strokeColor=none;fillColor=none;align=center;verticalAlign=middle;whiteSpace=wrap;rounded=0;fontSize=6;" vertex="1" parent="gB0xZqEEHk474Gqq3liz-45">
          <mxGeometry x="277.6999999999998" y="270" width="15.67" height="10" as="geometry" />
        </mxCell>
        <mxCell id="gB0xZqEEHk474Gqq3liz-112" value="" style="html=1;verticalLabelPosition=bottom;align=center;labelBackgroundColor=#ffffff;verticalAlign=top;strokeWidth=2;shadow=0;dashed=0;shape=mxgraph.ios7.icons.microphone;" vertex="1" parent="gB0xZqEEHk474Gqq3liz-45">
          <mxGeometry x="285.79999999999995" y="235" width="4" height="10" as="geometry" />
        </mxCell>
        <mxCell id="gB0xZqEEHk474Gqq3liz-113" value="" style="html=1;verticalLabelPosition=bottom;align=center;labelBackgroundColor=#ffffff;verticalAlign=top;strokeWidth=2;shadow=0;dashed=0;shape=mxgraph.ios7.icons.chat;" vertex="1" parent="gB0xZqEEHk474Gqq3liz-45">
          <mxGeometry x="311.99999999999994" y="221.5" width="12.33" height="7" as="geometry" />
        </mxCell>
        <mxCell id="gB0xZqEEHk474Gqq3liz-114" value="" style="shape=image;html=1;verticalAlign=top;verticalLabelPosition=bottom;labelBackgroundColor=#ffffff;imageAspect=0;aspect=fixed;image=https://cdn0.iconfinder.com/data/icons/pokemon-go-vol-2/135/_pikachu-128.png" vertex="1" parent="gB0xZqEEHk474Gqq3liz-45">
          <mxGeometry x="234.53999999999996" y="227" width="36.5" height="36.5" as="geometry" />
        </mxCell>
        <mxCell id="gB0xZqEEHk474Gqq3liz-115" value="" style="shape=image;html=1;verticalAlign=top;verticalLabelPosition=bottom;labelBackgroundColor=#ffffff;imageAspect=0;aspect=fixed;image=https://cdn4.iconfinder.com/data/icons/evil-icons-user-interface/64/eye-128.png;imageBackground=none;imageBorder=none;" vertex="1" parent="gB0xZqEEHk474Gqq3liz-45">
          <mxGeometry x="293.36999999999995" y="224.5" width="15" height="15" as="geometry" />
        </mxCell>
        <mxCell id="gB0xZqEEHk474Gqq3liz-116" value="GuessPO" style="text;html=1;strokeColor=none;fillColor=none;align=center;verticalAlign=middle;whiteSpace=wrap;rounded=0;fontSize=4;" vertex="1" parent="gB0xZqEEHk474Gqq3liz-45">
          <mxGeometry x="241" y="263.5" width="22.63" height="1" as="geometry" />
        </mxCell>
        <mxCell id="gB0xZqEEHk474Gqq3liz-117" value="in-game" style="text;html=1;strokeColor=none;fillColor=none;align=center;verticalAlign=middle;whiteSpace=wrap;rounded=0;fontSize=4;" vertex="1" parent="gB0xZqEEHk474Gqq3liz-45">
          <mxGeometry x="293.37" y="259" width="22.63" height="1" as="geometry" />
        </mxCell>
        <mxCell id="gB0xZqEEHk474Gqq3liz-118" value="" style="sketch=0;outlineConnect=0;fontColor=#232F3E;gradientColor=none;fillColor=#8C4FFF;strokeColor=none;dashed=0;verticalLabelPosition=bottom;verticalAlign=top;align=center;html=1;fontSize=12;fontStyle=0;aspect=fixed;pointerEvents=1;shape=mxgraph.aws4.vpn_gateway;" vertex="1" parent="gB0xZqEEHk474Gqq3liz-45">
          <mxGeometry x="64.53999999999996" y="388" width="34" height="34" as="geometry" />
        </mxCell>
        <mxCell id="gB0xZqEEHk474Gqq3liz-119" value="" style="sketch=0;outlineConnect=0;fontColor=#232F3E;gradientColor=none;fillColor=#8C4FFF;strokeColor=none;dashed=0;verticalLabelPosition=bottom;verticalAlign=top;align=center;html=1;fontSize=12;fontStyle=0;aspect=fixed;pointerEvents=1;shape=mxgraph.aws4.vpn_gateway;" vertex="1" parent="gB0xZqEEHk474Gqq3liz-45">
          <mxGeometry x="104" y="351" width="34" height="34" as="geometry" />
        </mxCell>
        <mxCell id="gB0xZqEEHk474Gqq3liz-120" value="" style="sketch=0;outlineConnect=0;fontColor=#232F3E;gradientColor=none;fillColor=#8C4FFF;strokeColor=none;dashed=0;verticalLabelPosition=bottom;verticalAlign=top;align=center;html=1;fontSize=12;fontStyle=0;aspect=fixed;pointerEvents=1;shape=mxgraph.aws4.vpn_gateway;" vertex="1" parent="gB0xZqEEHk474Gqq3liz-45">
          <mxGeometry x="24" y="266" width="34" height="34" as="geometry" />
        </mxCell>
        <mxCell id="gB0xZqEEHk474Gqq3liz-121" value="" style="sketch=0;outlineConnect=0;fontColor=#232F3E;gradientColor=none;fillColor=#8C4FFF;strokeColor=none;dashed=0;verticalLabelPosition=bottom;verticalAlign=top;align=center;html=1;fontSize=12;fontStyle=0;aspect=fixed;pointerEvents=1;shape=mxgraph.aws4.vpn_gateway;" vertex="1" parent="gB0xZqEEHk474Gqq3liz-45">
          <mxGeometry x="24" y="104" width="34" height="34" as="geometry" />
        </mxCell>
        <mxCell id="gB0xZqEEHk474Gqq3liz-122" value="" style="endArrow=none;html=1;rounded=0;" edge="1" parent="1">
          <mxGeometry width="50" height="50" relative="1" as="geometry">
            <mxPoint x="1320" y="730" as="sourcePoint" />
            <mxPoint x="1940" y="730" as="targetPoint" />
          </mxGeometry>
        </mxCell>
        <mxCell id="gB0xZqEEHk474Gqq3liz-123" value="" style="html=1;shape=mxgraph.basic.isocube;isoAngle=15;fillColor=#e1d5e7;strokeColor=#9673a6;" vertex="1" parent="1">
          <mxGeometry x="1850" y="810" width="100" height="100" as="geometry" />
        </mxCell>
        <mxCell id="gB0xZqEEHk474Gqq3liz-124" value="" style="html=1;shape=mxgraph.basic.isocube;isoAngle=15;fillColor=#b0e3e6;strokeColor=#0e8088;" vertex="1" parent="1">
          <mxGeometry x="1800" y="887" width="100" height="100" as="geometry" />
        </mxCell>
        <mxCell id="gB0xZqEEHk474Gqq3liz-125" value="" style="html=1;shape=mxgraph.basic.isocube;isoAngle=15;fillColor=#76608a;fontColor=#ffffff;strokeColor=#432D57;" vertex="1" parent="1">
          <mxGeometry x="1750" y="810" width="100" height="100" as="geometry" />
        </mxCell>
        <mxCell id="gB0xZqEEHk474Gqq3liz-126" value="" style="html=1;shape=mxgraph.basic.isocube;isoAngle=15;fillColor=#b1ddf0;strokeColor=#10739e;" vertex="1" parent="1">
          <mxGeometry x="1753" y="963" width="100" height="100" as="geometry" />
        </mxCell>
        <mxCell id="gB0xZqEEHk474Gqq3liz-127" value="" style="html=1;shape=mxgraph.basic.isocube;isoAngle=15;fillColor=#b1ddf0;strokeColor=#10739e;" vertex="1" parent="1">
          <mxGeometry x="1800" y="730" width="100" height="100" as="geometry" />
        </mxCell>
        <mxCell id="gB0xZqEEHk474Gqq3liz-128" value="join this lobby&lt;br&gt;(selected from&amp;nbsp;&lt;br&gt;lobby list)" style="edgeStyle=orthogonalEdgeStyle;rounded=0;orthogonalLoop=1;jettySize=auto;html=1;fillColor=#dae8fc;strokeColor=#6c8ebf;strokeWidth=4;" edge="1" parent="1" source="gB0xZqEEHk474Gqq3liz-129" target="gB0xZqEEHk474Gqq3liz-176">
          <mxGeometry x="-0.3656" relative="1" as="geometry">
            <Array as="points">
              <mxPoint x="2140" y="1009.0000000000001" />
              <mxPoint x="2140" y="1680" />
            </Array>
            <mxPoint as="offset" />
          </mxGeometry>
        </mxCell>
        <mxCell id="gB0xZqEEHk474Gqq3liz-129" value="" style="html=1;shape=mxgraph.basic.isocube;isoAngle=15;fillColor=#e51400;fontColor=#ffffff;strokeColor=#B20000;" vertex="1" parent="1">
          <mxGeometry x="1853" y="959" width="100" height="100" as="geometry" />
        </mxCell>
        <mxCell id="gB0xZqEEHk474Gqq3liz-130" value="main-client: lobby form" style="swimlane;whiteSpace=wrap;html=1;" vertex="1" parent="1">
          <mxGeometry x="1323" y="1230" width="630" height="370" as="geometry">
            <mxRectangle x="110" y="30" width="180" height="30" as="alternateBounds" />
          </mxGeometry>
        </mxCell>
        <mxCell id="gB0xZqEEHk474Gqq3liz-131" value="***********" style="rounded=0;whiteSpace=wrap;html=1;align=left;" vertex="1" parent="gB0xZqEEHk474Gqq3liz-130">
          <mxGeometry x="204.28999999999996" y="115" width="230" height="20" as="geometry" />
        </mxCell>
        <mxCell id="gB0xZqEEHk474Gqq3liz-132" value="password (optional):" style="text;html=1;align=center;verticalAlign=middle;resizable=0;points=[];autosize=1;strokeColor=none;fillColor=none;fontSize=10;" vertex="1" parent="gB0xZqEEHk474Gqq3liz-130">
          <mxGeometry x="193.99999999999997" y="86" width="110" height="30" as="geometry" />
        </mxCell>
        <mxCell id="gB0xZqEEHk474Gqq3liz-133" value="error: easy password" style="text;html=1;align=center;verticalAlign=middle;resizable=0;points=[];autosize=1;strokeColor=none;fillColor=none;fontSize=10;fontColor=#FF0F0F;" vertex="1" parent="gB0xZqEEHk474Gqq3liz-130">
          <mxGeometry x="329.28999999999996" y="86" width="120" height="30" as="geometry" />
        </mxCell>
        <mxCell id="gB0xZqEEHk474Gqq3liz-134" value="Create Lobby" style="text;html=1;align=center;verticalAlign=middle;resizable=0;points=[];autosize=1;strokeColor=none;fillColor=none;fontSize=27;" vertex="1" parent="gB0xZqEEHk474Gqq3liz-130">
          <mxGeometry x="217" y="36" width="190" height="50" as="geometry" />
        </mxCell>
        <mxCell id="gB0xZqEEHk474Gqq3liz-135" value="" style="html=1;verticalLabelPosition=bottom;align=center;labelBackgroundColor=#ffffff;verticalAlign=top;strokeWidth=2;strokeColor=#0080F0;shadow=0;dashed=0;shape=mxgraph.ios7.icons.eye;" vertex="1" parent="gB0xZqEEHk474Gqq3liz-130">
          <mxGeometry x="401.28999999999996" y="117.95000000000005" width="30" height="14.1" as="geometry" />
        </mxCell>
        <mxCell id="gB0xZqEEHk474Gqq3liz-136" value="" style="shape=actor;whiteSpace=wrap;html=1;" vertex="1" parent="gB0xZqEEHk474Gqq3liz-130">
          <mxGeometry x="210.29" y="208" width="13.33" height="20" as="geometry" />
        </mxCell>
        <mxCell id="gB0xZqEEHk474Gqq3liz-137" value="" style="endArrow=classic;html=1;rounded=0;" edge="1" parent="gB0xZqEEHk474Gqq3liz-130">
          <mxGeometry width="50" height="50" relative="1" as="geometry">
            <mxPoint x="313" y="221" as="sourcePoint" />
            <mxPoint x="313" y="231" as="targetPoint" />
          </mxGeometry>
        </mxCell>
        <mxCell id="gB0xZqEEHk474Gqq3liz-138" value="max players:" style="text;html=1;align=center;verticalAlign=middle;resizable=0;points=[];autosize=1;strokeColor=none;fillColor=none;fontSize=10;" vertex="1" parent="gB0xZqEEHk474Gqq3liz-130">
          <mxGeometry x="217" y="202" width="80" height="30" as="geometry" />
        </mxCell>
        <mxCell id="gB0xZqEEHk474Gqq3liz-139" value="10" style="text;html=1;strokeColor=none;fillColor=none;align=center;verticalAlign=middle;whiteSpace=wrap;rounded=0;" vertex="1" parent="gB0xZqEEHk474Gqq3liz-130">
          <mxGeometry x="281" y="213" width="30" height="10" as="geometry" />
        </mxCell>
        <mxCell id="gB0xZqEEHk474Gqq3liz-140" value="" style="html=1;verticalLabelPosition=bottom;align=center;labelBackgroundColor=#ffffff;verticalAlign=top;strokeWidth=2;shadow=0;dashed=0;shape=mxgraph.ios7.icons.microphone;" vertex="1" parent="gB0xZqEEHk474Gqq3liz-130">
          <mxGeometry x="211" y="274" width="7.2" height="18" as="geometry" />
        </mxCell>
        <mxCell id="gB0xZqEEHk474Gqq3liz-141" value="" style="html=1;verticalLabelPosition=bottom;align=center;labelBackgroundColor=#ffffff;verticalAlign=top;strokeWidth=2;shadow=0;dashed=0;shape=mxgraph.ios7.icons.chat;" vertex="1" parent="gB0xZqEEHk474Gqq3liz-130">
          <mxGeometry x="198.6" y="306" width="28.19" height="14" as="geometry" />
        </mxCell>
        <mxCell id="gB0xZqEEHk474Gqq3liz-142" value="" style="shape=image;html=1;verticalAlign=top;verticalLabelPosition=bottom;labelBackgroundColor=#ffffff;imageAspect=0;aspect=fixed;image=https://cdn4.iconfinder.com/data/icons/evil-icons-user-interface/64/eye-128.png;imageBackground=none;imageBorder=none;" vertex="1" parent="gB0xZqEEHk474Gqq3liz-130">
          <mxGeometry x="201.79" y="245" width="25" height="25" as="geometry" />
        </mxCell>
        <mxCell id="gB0xZqEEHk474Gqq3liz-143" value="specter allowed:" style="text;html=1;align=center;verticalAlign=middle;resizable=0;points=[];autosize=1;strokeColor=none;fillColor=none;fontSize=10;" vertex="1" parent="gB0xZqEEHk474Gqq3liz-130">
          <mxGeometry x="213" y="241" width="100" height="30" as="geometry" />
        </mxCell>
        <mxCell id="gB0xZqEEHk474Gqq3liz-144" value="Voice chat allowed:" style="text;html=1;align=center;verticalAlign=middle;resizable=0;points=[];autosize=1;strokeColor=none;fillColor=none;fontSize=10;" vertex="1" parent="gB0xZqEEHk474Gqq3liz-130">
          <mxGeometry x="212" y="269" width="110" height="30" as="geometry" />
        </mxCell>
        <mxCell id="gB0xZqEEHk474Gqq3liz-145" value="" style="verticalLabelPosition=bottom;verticalAlign=top;html=1;shadow=0;dashed=0;strokeWidth=1;shape=mxgraph.ios.iCheckIcon;fillColor=#e8878E;fillColor2=#BD1421;strokeColor=#ffffff;sketch=0;" vertex="1" parent="gB0xZqEEHk474Gqq3liz-130">
          <mxGeometry x="315" y="277" width="15" height="15" as="geometry" />
        </mxCell>
        <mxCell id="gB0xZqEEHk474Gqq3liz-146" value="Text chat allowed:" style="text;html=1;align=center;verticalAlign=middle;resizable=0;points=[];autosize=1;strokeColor=none;fillColor=none;fontSize=10;" vertex="1" parent="gB0xZqEEHk474Gqq3liz-130">
          <mxGeometry x="218.2" y="298" width="100" height="30" as="geometry" />
        </mxCell>
        <mxCell id="gB0xZqEEHk474Gqq3liz-147" value="Game Mode:" style="text;html=1;align=center;verticalAlign=middle;resizable=0;points=[];autosize=1;strokeColor=none;fillColor=none;fontSize=10;" vertex="1" parent="gB0xZqEEHk474Gqq3liz-130">
          <mxGeometry x="217" y="157" width="80" height="30" as="geometry" />
        </mxCell>
        <mxCell id="gB0xZqEEHk474Gqq3liz-148" value="" style="shape=image;html=1;verticalAlign=top;verticalLabelPosition=bottom;labelBackgroundColor=#ffffff;imageAspect=0;aspect=fixed;image=https://cdn0.iconfinder.com/data/icons/pokemon-go-vol-2/135/_snorlax-128.png" vertex="1" parent="gB0xZqEEHk474Gqq3liz-130">
          <mxGeometry x="201.79" y="160" width="25" height="25" as="geometry" />
        </mxCell>
        <mxCell id="gB0xZqEEHk474Gqq3liz-149" value="Mench" style="text;html=1;align=center;verticalAlign=middle;resizable=0;points=[];autosize=1;strokeColor=none;fillColor=none;fontSize=10;" vertex="1" parent="gB0xZqEEHk474Gqq3liz-130">
          <mxGeometry x="279.28999999999996" y="157.5" width="50" height="30" as="geometry" />
        </mxCell>
        <mxCell id="gB0xZqEEHk474Gqq3liz-150" value="" style="dashed=0;labelPosition=right;align=left;shape=mxgraph.gmdl.checkbox;strokeColor=#666666;fillColor=none;strokeWidth=2;aspect=fixed;sketch=0;html=1;" vertex="1" parent="gB0xZqEEHk474Gqq3liz-130">
          <mxGeometry x="313.29" y="305" width="16" height="16" as="geometry" />
        </mxCell>
        <mxCell id="gB0xZqEEHk474Gqq3liz-151" value="" style="verticalLabelPosition=bottom;verticalAlign=top;html=1;shadow=0;dashed=0;strokeWidth=1;shape=mxgraph.ios.iCheckIcon;fillColor=#e8878E;fillColor2=#BD1421;strokeColor=#ffffff;sketch=0;" vertex="1" parent="gB0xZqEEHk474Gqq3liz-130">
          <mxGeometry x="313.28999999999996" y="305" width="15" height="15" as="geometry" />
        </mxCell>
        <mxCell id="gB0xZqEEHk474Gqq3liz-152" value="" style="dashed=0;labelPosition=right;align=left;shape=mxgraph.gmdl.checkbox;strokeColor=#666666;fillColor=none;strokeWidth=2;aspect=fixed;sketch=0;html=1;" vertex="1" parent="gB0xZqEEHk474Gqq3liz-130">
          <mxGeometry x="314" y="276.5" width="16" height="16" as="geometry" />
        </mxCell>
        <mxCell id="gB0xZqEEHk474Gqq3liz-153" value="" style="dashed=0;labelPosition=right;align=left;shape=mxgraph.gmdl.checkbox;strokeColor=#666666;fillColor=none;strokeWidth=2;aspect=fixed;sketch=0;html=1;" vertex="1" parent="gB0xZqEEHk474Gqq3liz-130">
          <mxGeometry x="311" y="249.5" width="16" height="16" as="geometry" />
        </mxCell>
        <mxCell id="gB0xZqEEHk474Gqq3liz-154" value="&lt;font style=&quot;font-size: 10px;&quot;&gt;cancel&lt;/font&gt;" style="rounded=0;whiteSpace=wrap;html=1;" vertex="1" parent="gB0xZqEEHk474Gqq3liz-130">
          <mxGeometry x="234" y="340" width="70" height="20" as="geometry" />
        </mxCell>
        <mxCell id="gB0xZqEEHk474Gqq3liz-155" value="submit" style="rounded=0;whiteSpace=wrap;html=1;fillColor=#d5e8d4;strokeColor=#82b366;" vertex="1" parent="gB0xZqEEHk474Gqq3liz-130">
          <mxGeometry x="329.28999999999996" y="340" width="70" height="20" as="geometry" />
        </mxCell>
        <mxCell id="gB0xZqEEHk474Gqq3liz-156" value="you cant not create lobby&lt;br&gt;your lobby creation is limitted" style="text;html=1;align=center;verticalAlign=middle;resizable=0;points=[];autosize=1;strokeColor=none;fillColor=none;fontSize=10;fontColor=#FF0F0F;" vertex="1" parent="gB0xZqEEHk474Gqq3liz-130">
          <mxGeometry x="467" y="36" width="150" height="40" as="geometry" />
        </mxCell>
        <mxCell id="gB0xZqEEHk474Gqq3liz-157" value="create lobby" style="edgeStyle=orthogonalEdgeStyle;rounded=0;orthogonalLoop=1;jettySize=auto;html=1;fillColor=#dae8fc;strokeColor=#6c8ebf;" edge="1" parent="1" source="gB0xZqEEHk474Gqq3liz-48" target="gB0xZqEEHk474Gqq3liz-130">
          <mxGeometry x="0.1032" relative="1" as="geometry">
            <Array as="points">
              <mxPoint x="1990" y="698" />
              <mxPoint x="1990" y="1190" />
              <mxPoint x="1638" y="1190" />
            </Array>
            <mxPoint as="offset" />
          </mxGeometry>
        </mxCell>
        <mxCell id="gB0xZqEEHk474Gqq3liz-158" value="" style="endArrow=classic;html=1;rounded=0;" edge="1" parent="1">
          <mxGeometry width="50" height="50" relative="1" as="geometry">
            <mxPoint x="1636" y="1446" as="sourcePoint" />
            <mxPoint x="1636" y="1436" as="targetPoint" />
          </mxGeometry>
        </mxCell>
        <mxCell id="gB0xZqEEHk474Gqq3liz-159" value="" style="endArrow=classic;html=1;rounded=0;" edge="1" parent="1">
          <mxGeometry width="50" height="50" relative="1" as="geometry">
            <mxPoint x="1671" y="1405" as="sourcePoint" />
            <mxPoint x="1671" y="1415" as="targetPoint" />
          </mxGeometry>
        </mxCell>
        <mxCell id="gB0xZqEEHk474Gqq3liz-160" value="" style="endArrow=classic;html=1;rounded=0;" edge="1" parent="1">
          <mxGeometry width="50" height="50" relative="1" as="geometry">
            <mxPoint x="1671" y="1400" as="sourcePoint" />
            <mxPoint x="1671" y="1390" as="targetPoint" />
          </mxGeometry>
        </mxCell>
        <mxCell id="gB0xZqEEHk474Gqq3liz-161" value="cancel" style="edgeStyle=orthogonalEdgeStyle;rounded=0;orthogonalLoop=1;jettySize=auto;html=1;fillColor=#e1d5e7;strokeColor=#9673a6;" edge="1" parent="1" source="gB0xZqEEHk474Gqq3liz-154" target="gB0xZqEEHk474Gqq3liz-45">
          <mxGeometry relative="1" as="geometry">
            <Array as="points">
              <mxPoint x="1250" y="1580" />
              <mxPoint x="1250" y="1080" />
            </Array>
          </mxGeometry>
        </mxCell>
        <mxCell id="gB0xZqEEHk474Gqq3liz-162" value="failed/longwait" style="edgeStyle=orthogonalEdgeStyle;rounded=0;orthogonalLoop=1;jettySize=auto;html=1;fillColor=#dae8fc;strokeColor=#6c8ebf;" edge="1" parent="1" source="gB0xZqEEHk474Gqq3liz-165" target="gB0xZqEEHk474Gqq3liz-169">
          <mxGeometry relative="1" as="geometry" />
        </mxCell>
        <mxCell id="gB0xZqEEHk474Gqq3liz-163" value="responsed error" style="edgeStyle=orthogonalEdgeStyle;rounded=0;orthogonalLoop=1;jettySize=auto;html=1;fillColor=#e1d5e7;strokeColor=#9673a6;" edge="1" parent="1" source="gB0xZqEEHk474Gqq3liz-165" target="gB0xZqEEHk474Gqq3liz-130">
          <mxGeometry relative="1" as="geometry">
            <Array as="points">
              <mxPoint x="2070" y="1330" />
              <mxPoint x="2070" y="1330" />
            </Array>
          </mxGeometry>
        </mxCell>
        <mxCell id="gB0xZqEEHk474Gqq3liz-164" value="sucess" style="edgeStyle=orthogonalEdgeStyle;rounded=0;orthogonalLoop=1;jettySize=auto;html=1;fillColor=#dae8fc;strokeColor=#6c8ebf;" edge="1" parent="1" source="gB0xZqEEHk474Gqq3liz-165" target="gB0xZqEEHk474Gqq3liz-176">
          <mxGeometry relative="1" as="geometry" />
        </mxCell>
        <mxCell id="gB0xZqEEHk474Gqq3liz-165" value="main-client: creating lobby wait" style="swimlane;whiteSpace=wrap;html=1;" vertex="1" parent="1">
          <mxGeometry x="2190" y="1240" width="630" height="350" as="geometry">
            <mxRectangle x="110" y="30" width="180" height="30" as="alternateBounds" />
          </mxGeometry>
        </mxCell>
        <mxCell id="gB0xZqEEHk474Gqq3liz-166" value="creating lobby&lt;br&gt;please wait..." style="text;html=1;align=center;verticalAlign=middle;resizable=0;points=[];autosize=1;strokeColor=none;fillColor=none;fontSize=27;" vertex="1" parent="gB0xZqEEHk474Gqq3liz-165">
          <mxGeometry x="220" y="133" width="190" height="80" as="geometry" />
        </mxCell>
        <mxCell id="gB0xZqEEHk474Gqq3liz-168" value="data" style="edgeStyle=orthogonalEdgeStyle;rounded=0;orthogonalLoop=1;jettySize=auto;html=1;fillColor=#dae8fc;strokeColor=#6c8ebf;strokeWidth=1;" edge="1" parent="1" source="gB0xZqEEHk474Gqq3liz-155" target="gB0xZqEEHk474Gqq3liz-165">
          <mxGeometry relative="1" as="geometry">
            <Array as="points">
              <mxPoint x="1990" y="1580" />
              <mxPoint x="1990" y="1415" />
            </Array>
          </mxGeometry>
        </mxCell>
        <mxCell id="gB0xZqEEHk474Gqq3liz-169" value="main-client: create lobby dialog failed" style="swimlane;whiteSpace=wrap;html=1;" vertex="1" parent="1">
          <mxGeometry x="2990" y="1230" width="630" height="350" as="geometry">
            <mxRectangle x="110" y="30" width="180" height="30" as="alternateBounds" />
          </mxGeometry>
        </mxCell>
        <mxCell id="gB0xZqEEHk474Gqq3liz-170" value="1.Connection problem&lt;br&gt;2.Server did not response for a while" style="text;html=1;align=center;verticalAlign=middle;resizable=0;points=[];autosize=1;strokeColor=none;fillColor=none;fontSize=27;" vertex="1" parent="gB0xZqEEHk474Gqq3liz-169">
          <mxGeometry x="85" y="100" width="460" height="80" as="geometry" />
        </mxCell>
        <mxCell id="gB0xZqEEHk474Gqq3liz-171" value="retry" style="rounded=0;whiteSpace=wrap;html=1;" vertex="1" parent="gB0xZqEEHk474Gqq3liz-169">
          <mxGeometry x="348" y="220" width="115" height="30" as="geometry" />
        </mxCell>
        <mxCell id="gB0xZqEEHk474Gqq3liz-172" value="cancel" style="rounded=0;whiteSpace=wrap;html=1;" vertex="1" parent="gB0xZqEEHk474Gqq3liz-169">
          <mxGeometry x="168" y="220" width="115" height="30" as="geometry" />
        </mxCell>
        <mxCell id="gB0xZqEEHk474Gqq3liz-173" value="retry" style="edgeStyle=orthogonalEdgeStyle;rounded=0;orthogonalLoop=1;jettySize=auto;html=1;fillColor=#e1d5e7;strokeColor=#9673a6;" edge="1" parent="1" source="gB0xZqEEHk474Gqq3liz-171" target="gB0xZqEEHk474Gqq3liz-165">
          <mxGeometry relative="1" as="geometry">
            <Array as="points">
              <mxPoint x="3395" y="1650" />
              <mxPoint x="2870" y="1650" />
              <mxPoint x="2870" y="1465" />
            </Array>
          </mxGeometry>
        </mxCell>
        <mxCell id="gB0xZqEEHk474Gqq3liz-174" value="cancel" style="edgeStyle=orthogonalEdgeStyle;rounded=0;orthogonalLoop=1;jettySize=auto;html=1;fillColor=#e1d5e7;strokeColor=#9673a6;" edge="1" parent="1" source="gB0xZqEEHk474Gqq3liz-172" target="gB0xZqEEHk474Gqq3liz-45">
          <mxGeometry relative="1" as="geometry">
            <Array as="points">
              <mxPoint x="3215" y="1510" />
              <mxPoint x="2960" y="1510" />
              <mxPoint x="2960" y="820" />
            </Array>
          </mxGeometry>
        </mxCell>
        <mxCell id="gB0xZqEEHk474Gqq3liz-175" value="do action" style="edgeStyle=orthogonalEdgeStyle;rounded=0;orthogonalLoop=1;jettySize=auto;html=1;" edge="1" parent="1" source="gB0xZqEEHk474Gqq3liz-176" target="gB0xZqEEHk474Gqq3liz-178">
          <mxGeometry relative="1" as="geometry" />
        </mxCell>
        <mxCell id="gB0xZqEEHk474Gqq3liz-176" value="main-client: join lobby wait" style="swimlane;whiteSpace=wrap;html=1;" vertex="1" parent="1">
          <mxGeometry x="2190" y="1650" width="630" height="350" as="geometry">
            <mxRectangle x="110" y="30" width="180" height="30" as="alternateBounds" />
          </mxGeometry>
        </mxCell>
        <mxCell id="gB0xZqEEHk474Gqq3liz-177" value="join lobby&lt;br&gt;please wait.." style="text;html=1;align=center;verticalAlign=middle;resizable=0;points=[];autosize=1;strokeColor=none;fillColor=none;fontSize=27;" vertex="1" parent="gB0xZqEEHk474Gqq3liz-176">
          <mxGeometry x="230" y="133" width="170" height="80" as="geometry" />
        </mxCell>
        <mxCell id="gB0xZqEEHk474Gqq3liz-178" value="open game-client.exe &lt;br&gt;(ip,port,identity)" style="rounded=0;whiteSpace=wrap;html=1;" vertex="1" parent="1">
          <mxGeometry x="2410" y="2070" width="200" height="100" as="geometry" />
        </mxCell>
        <mxCell id="gB0xZqEEHk474Gqq3liz-179" value="success" style="edgeStyle=orthogonalEdgeStyle;rounded=0;orthogonalLoop=1;jettySize=auto;html=1;fillColor=#dae8fc;strokeColor=#6c8ebf;" edge="1" parent="1" source="gB0xZqEEHk474Gqq3liz-181" target="gB0xZqEEHk474Gqq3liz-176">
          <mxGeometry relative="1" as="geometry">
            <Array as="points">
              <mxPoint x="940" y="1710" />
            </Array>
          </mxGeometry>
        </mxCell>
        <mxCell id="gB0xZqEEHk474Gqq3liz-181" value="main-client: receive lobby info wait" style="swimlane;whiteSpace=wrap;html=1;" vertex="1" parent="1">
          <mxGeometry x="510" y="1240" width="630" height="350" as="geometry">
            <mxRectangle x="110" y="30" width="180" height="30" as="alternateBounds" />
          </mxGeometry>
        </mxCell>
        <mxCell id="gB0xZqEEHk474Gqq3liz-182" value="receiving lobby info&lt;br&gt;please wait..." style="text;html=1;align=center;verticalAlign=middle;resizable=0;points=[];autosize=1;strokeColor=none;fillColor=none;fontSize=27;" vertex="1" parent="gB0xZqEEHk474Gqq3liz-181">
          <mxGeometry x="190" y="133" width="250" height="80" as="geometry" />
        </mxCell>
        <mxCell id="gB0xZqEEHk474Gqq3liz-184" value="response: error / result" style="edgeStyle=orthogonalEdgeStyle;rounded=0;orthogonalLoop=1;jettySize=auto;html=1;fillColor=#e1d5e7;strokeColor=#9673a6;" edge="1" parent="1" source="gB0xZqEEHk474Gqq3liz-185" target="gB0xZqEEHk474Gqq3liz-45">
          <mxGeometry relative="1" as="geometry">
            <Array as="points">
              <mxPoint x="2080" y="960" />
              <mxPoint x="2080" y="875" />
            </Array>
          </mxGeometry>
        </mxCell>
        <mxCell id="gB0xZqEEHk474Gqq3liz-185" value="main-client: get lobby list wait" style="swimlane;whiteSpace=wrap;html=1;" vertex="1" parent="1">
          <mxGeometry x="2200" y="850" width="630" height="350" as="geometry">
            <mxRectangle x="110" y="30" width="180" height="30" as="alternateBounds" />
          </mxGeometry>
        </mxCell>
        <mxCell id="gB0xZqEEHk474Gqq3liz-186" value="loading lobby list&lt;br&gt;please wait..." style="text;html=1;align=center;verticalAlign=middle;resizable=0;points=[];autosize=1;strokeColor=none;fillColor=none;fontSize=27;" vertex="1" parent="gB0xZqEEHk474Gqq3liz-185">
          <mxGeometry x="205" y="133" width="220" height="80" as="geometry" />
        </mxCell>
        <mxCell id="gB0xZqEEHk474Gqq3liz-187" value="get lobby list" style="edgeStyle=orthogonalEdgeStyle;rounded=0;orthogonalLoop=1;jettySize=auto;html=1;fillColor=#dae8fc;strokeColor=#6c8ebf;strokeWidth=4;" edge="1" parent="1" source="gB0xZqEEHk474Gqq3liz-76" target="gB0xZqEEHk474Gqq3liz-185">
          <mxGeometry relative="1" as="geometry">
            <Array as="points">
              <mxPoint x="1927" y="760" />
              <mxPoint x="2160" y="760" />
              <mxPoint x="2160" y="920" />
            </Array>
          </mxGeometry>
        </mxCell>
        <mxCell id="gB0xZqEEHk474Gqq3liz-188" value="main-client: logout" style="swimlane;whiteSpace=wrap;html=1;" vertex="1" parent="1">
          <mxGeometry x="2990" y="360" width="630" height="350" as="geometry">
            <mxRectangle x="110" y="30" width="180" height="30" as="alternateBounds" />
          </mxGeometry>
        </mxCell>
        <mxCell id="gB0xZqEEHk474Gqq3liz-189" value="are you sure to logout&lt;br&gt;from account %username%" style="text;html=1;align=center;verticalAlign=middle;resizable=0;points=[];autosize=1;strokeColor=none;fillColor=none;fontSize=27;" vertex="1" parent="gB0xZqEEHk474Gqq3liz-188">
          <mxGeometry x="135" y="100" width="360" height="80" as="geometry" />
        </mxCell>
        <mxCell id="gB0xZqEEHk474Gqq3liz-190" value="yes" style="rounded=0;whiteSpace=wrap;html=1;" vertex="1" parent="gB0xZqEEHk474Gqq3liz-188">
          <mxGeometry x="348" y="220" width="115" height="30" as="geometry" />
        </mxCell>
        <mxCell id="gB0xZqEEHk474Gqq3liz-191" value="cancel" style="rounded=0;whiteSpace=wrap;html=1;" vertex="1" parent="gB0xZqEEHk474Gqq3liz-188">
          <mxGeometry x="168" y="220" width="115" height="30" as="geometry" />
        </mxCell>
        <mxCell id="gB0xZqEEHk474Gqq3liz-192" value="cancel" style="edgeStyle=orthogonalEdgeStyle;rounded=0;orthogonalLoop=1;jettySize=auto;html=1;fillColor=#e1d5e7;strokeColor=#9673a6;strokeWidth=3;" edge="1" parent="1" source="gB0xZqEEHk474Gqq3liz-191" target="gB0xZqEEHk474Gqq3liz-45">
          <mxGeometry relative="1" as="geometry">
            <Array as="points">
              <mxPoint x="3216" y="730" />
            </Array>
          </mxGeometry>
        </mxCell>
        <mxCell id="gB0xZqEEHk474Gqq3liz-193" value="logout" style="edgeStyle=orthogonalEdgeStyle;rounded=0;orthogonalLoop=1;jettySize=auto;html=1;strokeWidth=3;fillColor=#dae8fc;strokeColor=#6c8ebf;" edge="1" parent="1" source="gB0xZqEEHk474Gqq3liz-77" target="gB0xZqEEHk474Gqq3liz-188">
          <mxGeometry relative="1" as="geometry">
            <Array as="points">
              <mxPoint x="1780" y="620" />
              <mxPoint x="2180" y="620" />
              <mxPoint x="2180" y="280" />
              <mxPoint x="3305" y="280" />
            </Array>
          </mxGeometry>
        </mxCell>
        <mxCell id="gB0xZqEEHk474Gqq3liz-195" value="main-client: notification dialog" style="swimlane;whiteSpace=wrap;html=1;" vertex="1" parent="1">
          <mxGeometry x="3060" y="850" width="540" height="260" as="geometry">
            <mxRectangle x="110" y="30" width="180" height="30" as="alternateBounds" />
          </mxGeometry>
        </mxCell>
        <mxCell id="gB0xZqEEHk474Gqq3liz-196" value="example:&lt;br&gt;could not load lobby." style="text;html=1;align=center;verticalAlign=middle;resizable=0;points=[];autosize=1;strokeColor=none;fillColor=none;fontSize=27;" vertex="1" parent="gB0xZqEEHk474Gqq3liz-195">
          <mxGeometry x="130" y="70" width="270" height="80" as="geometry" />
        </mxCell>
        <mxCell id="gB0xZqEEHk474Gqq3liz-197" style="edgeStyle=orthogonalEdgeStyle;rounded=0;orthogonalLoop=1;jettySize=auto;html=1;" edge="1" parent="gB0xZqEEHk474Gqq3liz-195" source="gB0xZqEEHk474Gqq3liz-199">
          <mxGeometry relative="1" as="geometry">
            <mxPoint x="385" y="207" as="targetPoint" />
          </mxGeometry>
        </mxCell>
        <mxCell id="gB0xZqEEHk474Gqq3liz-198" value="this dialog will invise" style="edgeLabel;html=1;align=center;verticalAlign=middle;resizable=0;points=[];" vertex="1" connectable="0" parent="gB0xZqEEHk474Gqq3liz-197">
          <mxGeometry x="1" y="-6" relative="1" as="geometry">
            <mxPoint x="55" y="-7" as="offset" />
          </mxGeometry>
        </mxCell>
        <mxCell id="gB0xZqEEHk474Gqq3liz-199" value="Ok" style="rounded=0;whiteSpace=wrap;html=1;" vertex="1" parent="gB0xZqEEHk474Gqq3liz-195">
          <mxGeometry x="178" y="180" width="115" height="30" as="geometry" />
        </mxCell>
      </root>
    </mxGraphModel>
  </diagram>
</mxfile>
